<?xml version="1.0" encoding="utf-8"?>
<!DOCTYPE svg PUBLIC "-//W3C//DTD SVG 1.1//EN" "http://www.w3.org/Graphics/SVG/1.1/DTD/svg11.dtd">
<svg version="1.1" xmlns="http://www.w3.org/2000/svg" xmlns:xlink="http://www.w3.org/1999/xlink" x="0px" y="0px"
	 width="512px" height="512px" viewBox="0 0 512 512" enable-background="new 0 0 512 512" xml:space="preserve">
<g>
	<path fill="#2A3582" d="M90.711,293.98c0.854,0.211,2.04,0.806,3.685,2.291c2.454,2.107,3.862,3.188,7.073,4.479
		c3.231,1.291,4.528,3.199,8.358,5.119c3.828,1.937,2.545,0.651,7.658,6.421c5.159,5.771,4.507,5.771,5.776,8.97
		c1.28,3.217,3.21,6.416,4.507,8.347c1.283,1.92,5.13,3.193,7.059,4.485c1.914,1.279,5.11,2.564,7.073,2.564
		c1.917,0,7.675,5.787,10.886,6.394c3.182,0.65,3.182,7.09,3.182,7.09l-3.182,8.963l-2.594,9.599l2.594,7.689
		c0,0-3.876,3.233-6.407,3.233c-2.356,0-3.213,1.485-5.745,0.783C116.171,357.561,98.418,327.704,90.711,293.98L90.711,293.98z
		 M375.257,332.166c0,1.926-0.617,7.072-1.285,9.604c-0.646,2.594-1.942,7.067-2.56,9.632c-0.651,2.571-3.845,7.701-5.759,8.981
		c-1.931,1.273-5.13,5.124-7.062,5.781c-1.914,0.635-3.228-4.508-2.56-7.062c0.646-2.57,3.846-9.608,3.846-9.608
		s0.646-3.852,1.279-6.444c0.651-2.543,8.324-5.754,8.324-5.754l5.158-9.62C374.64,327.676,375.257,330.252,375.257,332.166
		L375.257,332.166z M301.514,206.488c1.52-1.194,6.409,1.928,6.409,1.928s16.02,3.214,18.579,5.13c2.594,1.931,7.09,3.208,8.37,5.13
		c1.251,1.922,5.775,7.69,6.381,9.621c0.663,1.92,3.874,8.984,4.49,11.541c0.663,2.562,2.583,8.972,4.479,12.18
		c1.948,3.216,12.865,17.31,16.693,23.714l11.568-1.902c0,0-1.313,5.771-2.593,7.679c-1.252,1.942-5.131,7.072-7.045,9.62
		c-1.931,2.571-4.49,6.422-8.323,9.621c-3.846,3.199-3.846,6.398-5.776,8.976c-1.914,2.564-4.524,8.335-4.524,8.335
		s1.297,12.82,1.948,15.396c0.634,2.56-4.496,9.593-4.496,9.593l-5.793,5.787l-7.701,10.266l0.594,9.599
		c0,0-5.815,4.502-9.032,7.056c-3.228,2.576-2.69,4.501-5.239,7.061c-2.576,2.571-12.58,7.056-15.139,7.696
		c-2.617,0.65-16.729,2.57-16.729,2.57v-5.759l-0.297-6.421c0,0-1.948-7.701-3.862-10.272c-1.931-2.548-1.107-6.41-4.308-9.609
		c-3.21-3.205-4.382-5.771-5.016-7.701c-0.663-1.92,0.663-7.679,0.663-7.679s2.599-7.061,3.879-9.626
		c1.297-2.56,0.017-6.41-1.263-8.98c-1.269-2.56-1.92-8.976-1.92-10.896c0-1.931-5.124-5.136-7.038-7.061
		c-1.948-1.932-1.303-4.491-1.303-7.039c0-2.582-1.896-8.341-1.263-12.837c0.617-4.474-5.759-1.274-9.638,0
		c-3.845,1.285-6.375-1.274-6.375-5.125c0-3.861-7.073-0.628-11.552,1.932c-4.494,2.57-9.635,2.57-14.78,4.479
		c-5.096,1.932-7.689-1.908-7.689-1.908s-4.479-3.851-7.659-5.781c-3.228-1.914-6.458-5.771-8.989-8.97
		c-2.594-3.211-8.972-12.831-9.638-16.665c-0.631-3.856,0-6.433,0-10.932c0-4.462,0-7.036,0.666-10.252
		c0.634-3.188,2.579-7.041,4.496-10.241c1.882-3.213,8.955-7.064,10.886-8.347c1.914-1.28,6.393-5.122,6.393-7.689
		c0-2.568,2.563-3.842,3.813-6.396c1.314-2.577,5.807-8.972,11.583-6.413c0,0,5.127-0.634,7.059-1.283
		c1.914-0.64,7.024-2.531,9.604-3.822c2.548-1.285,8.91-1.885,8.91-1.885s5.048,2.011,6.964,2.011c1.914,0,8.182-1.125,8.182-1.125
		s2.891,9.301,2.891,11.235c0,1.928,1.919,3.836,5.13,5.11C280.341,208.416,295.126,211.63,301.514,206.488L301.514,206.488z
		 M218.157,146.227l-2.534-3.842l2.534-5.775l6.188,2.471v-11.443l5.901-3.196l4.905,7.039l7.564,8.341l-5.016,3.839l-13.354,2.568
		v-6.776L218.157,146.227L218.157,146.227z M141.332,131.273c15.713-14.482,34.084-26.005,54.322-33.815
		c-2.025,2.559-4.399,5.182-4.399,5.182s-4.511-0.009-12.832,8.98c-8.324,8.964-6.41,6.396-8.324,8.964
		c-1.931,2.563-1.314,3.197-5.793,6.424c-4.493,3.202-6.407,7.039-6.407,7.039l-7.073,2.563l-5.745-2.563
		c0,0-5.145,1.925-4.525-0.646C140.763,132.724,141.046,132.013,141.332,131.273L141.332,131.273z M120.713,155.836
		c0,2.58-3.482,3.188,0,9.632c4.479,8.318,0.634,12.172,0.634,12.172s-10.889,7.695-12.803,8.978
		c-1.931,1.277-7.076,8.35-3.845,6.416c3.196-1.922,7.041-3.836,3.845,1.283c-3.228,5.133-9.004,13.446-10.287,16.673
		c-1.279,3.188-7.675,10.903-7.675,14.751c0,3.839-2.562,11.541-1.928,14.737c0.443,2.257-0.997,8.835-2.105,11.529
		c0.885-36.041,12.991-69.253,33.038-96.424C120.271,155.673,120.713,155.836,120.713,155.836L120.713,155.836z M426.623,256.168
		c0,3.256-0.286,6.442-0.491,9.664c-1.188-3.039-2.977-6.976-3.434-8.667c-0.651-2.565-4.479-11.537-4.479-11.537
		s-3.827-5.15-6.41-6.43c-2.564-1.288-4.479-4.49-8.986-7.05c-4.479-2.568-6.393-3.851-10.255-3.851
		c-3.845,0-7.689-5.142-12.197-7.698c-4.479-2.548-5.113-1.268-5.113-1.268s5.113,7.698,5.113,9.609
		c0,1.917,5.787,5.122,11.563,3.853c0,0,3.833,7.044,5.759,8.978c1.919,1.923-0.646,3.856-4.474,6.393
		c-3.845,2.568-3.199,1.939-5.13,3.854c-1.932,1.931-8.342,5.147-10.284,6.404c-1.913,1.292-9.609,5.147-13.448,1.292
		c-1.856-1.857-1.269-5.765-2.548-8.35c-1.285-2.554-14.763-22.423-21.161-31.384c-1.12-1.588-3.839-6.433-5.775-7.707
		c-1.926-1.283,4.479-1.283,4.479-1.283s0-4.502-0.634-7.701c-0.629-3.196,0.634-7.695,0.634-7.695s-6.404,3.856-8.335,5.125
		c-1.92,1.309-3.834-2.548-6.428-5.75c-2.548-3.208-5.113-7.073-5.729-10.281c-0.663-3.196,3.182-4.473,3.182-4.473l5.759-3.205
		c0,0,7.073-1.294,11.552-0.64c4.479,0.64,11.569,1.271,11.569,1.271s1.885-4.488-0.697-6.404
		c-2.548-1.925-8.324-5.127-10.889-4.493c-2.56,0.643,1.233-3.205,4.479-5.765l-7.107-1.28c0,0-6.455,3.194-8.397,3.839
		c-1.914,0.648-5.256,1.931-7.805,5.127c-2.576,3.213,1.028,7.704-1.53,8.975c-2.583,1.3-4.291,1.931-6.222,2.574
		c-1.914,0.625-8.038,0-8.038,0c-6.628,0-2.354,6.036-0.663,8.184l-5.096-6.259l-3.816-8.987c0,0-5.49-3.842-8.032-5.116
		c-2.549-1.294-10.449-5.771-10.449-5.771l0.52,5.771l7.438,7.533l0.651,0.146l3.896,5.125l-8.547,0.651v-5.064
		c-8.044-1.945-5.965-3.939-6.821-4.548c-1.92-1.277-6.41-4.493-6.41-4.493s-7.53,1.28-9.461,1.925
		c-1.931,0.631-2.454,2.568-6.299,3.842c-3.876,1.289-5.602,3.217-6.867,5.13c-1.3,1.931-5.445,7.693-8.024,10.269
		c-2.58,2.56-7.341,1.908-9.255,1.908c-1.931,0-11.189-2.565-11.189-2.565v-10.886c0,0,1.283-6.116,0.631-8.018l5.619-0.954
		l9.37-1.928l2.736-1.922l3.939-5.11c0,0-4.431-3.239-1.217-7.73c1.551-2.148,7.073-2.548,9.604-4.47
		c2.611-1.934,6.456-3.216,6.456-3.216s4.496-3.839,8.958-8.33c0,0,3.211-1.928,7.09-3.208c0,0,10.866,9.615,12.797,9.615
		c1.932,0,8.976-4.482,8.976-4.482s1.948-5.776,1.285-7.69c-0.651-1.922-3.862-8.33-3.862-8.33s-1.885,3.205-3.827,5.773
		c-1.92,2.568-3.188,5.773-3.188,5.773s-9.003-0.623-9.62-2.545c-0.646-1.934-1.931-5.082-2.56-7.001
		c-0.663-1.942-5.775-1.874-9.621-0.6c-3.847,1.291,0.629-6.901,0.629-6.901s3.862-4.842,6.427-4.842
		c2.565,0,8.324-3.296,10.884-3.917c2.548-0.648,10.271-3.596,13.454-3.596c3.228,0,7.072,1.399,8.986,1.399
		c1.931,0,9.609,0,9.609,0l13.482-1.085c0,0,11.547,4.271,7.69,6.824c0,0,4.507,2.797,6.421,4.71c1.817,1.82,6.422-1.663,9.13-3.148
		C394.578,142.185,426.623,195.456,426.623,256.168L426.623,256.168z M256.498,69.944c-102.68,0-186.23,83.533-186.23,186.225
		c0,102.683,83.55,186.208,186.23,186.208c102.683,0,186.219-83.524,186.219-186.208C442.717,153.477,359.181,69.944,256.498,69.944
		L256.498,69.944z"/>
	<rect fill="none" width="512" height="512"/>
</g>
</svg>
