<?xml version="1.0" encoding="utf-8"?>
<svg viewBox="0 0 45.96997 45.96997" version="1.1" xmlns:xlink="http://www.w3.org/1999/xlink" xmlns="http://www.w3.org/2000/svg">
  <path d="M2.52002 27.65C2.63 27.68 2.77002 27.75 2.97998 27.93C3.28003 28.19 3.46002 28.32 3.84998 28.48C4.25 28.64 4.41003 28.87 4.88 29.11C5.34998 29.35 5.19 29.19 5.83002 29.9C6.46997 30.61 6.39001 30.61 6.54004 31.01C6.70001 31.41 6.94 31.8 7.09998 32.04C7.26001 32.28 7.72998 32.43 7.96997 32.59C8.21002 32.75 8.59998 32.91 8.83997 32.91C9.08002 32.91 9.78998 33.62 10.18 33.7C10.57 33.78 10.57 34.58 10.57 34.58L10.18 35.69L9.85999 36.88L10.18 37.83C10.18 37.83 9.70001 38.23 9.39001 38.23C9.09998 38.23 8.98999 38.41 8.67999 38.33C5.66998 35.5 3.46997 31.82 2.52002 27.65L2.52002 27.65L2.52002 27.65ZM37.64 32.37C37.64 32.61 37.56 33.24 37.48 33.56C37.4 33.88 37.24 34.43 37.16 34.75C37.08 35.07 36.69 35.7 36.45 35.86C36.21 36.02 35.8199 36.49 35.58 36.57C35.34 36.65 35.18 36.01 35.26 35.7C35.34 35.38 35.73 34.51 35.73 34.51C35.73 34.51 35.81 34.03 35.89 33.71C35.97 33.4 36.92 33 36.92 33L37.56 31.81C37.57 31.81 37.64 32.13 37.64 32.37L37.64 32.37L37.64 32.37ZM28.54 16.85C28.73 16.7 29.33 17.09 29.33 17.09C29.33 17.09 31.31 17.49 31.62 17.72C31.94 17.96 32.5 18.12 32.65 18.35C32.8 18.59 33.36 19.3 33.44 19.54C33.52 19.78 33.92 20.65 33.99 20.96C34.07 21.28 34.31 22.07 34.54 22.46C34.78 22.86 36.13 24.6 36.6 25.39L38.03 25.15C38.03 25.15 37.87 25.86 37.71 26.1C37.56 26.34 37.08 26.97 36.84 27.29C36.6 27.61 36.29 28.08 35.81 28.48C35.34 28.87 35.34 29.27 35.1 29.59C34.86 29.91 34.54 30.62 34.54 30.62C34.54 30.62 34.7 32.2 34.78 32.52C34.86 32.84 34.23 33.7 34.23 33.7L33.52 34.41L32.5699 35.68L32.64 36.87C32.64 36.87 31.92 37.43 31.52 37.74C31.12 38.06 31.19 38.3 30.87 38.61C30.55 38.93 29.32 39.48 29 39.56C28.68 39.64 26.94 39.88 26.94 39.88L26.94 39.17L26.9 38.38C26.9 38.38 26.66 37.43 26.42 37.11C26.18 36.8 26.28 36.32 25.89 35.92C25.49 35.52 25.35 35.21 25.27 34.97C25.19 34.73 25.35 34.02 25.35 34.02C25.35 34.02 25.67 33.15 25.83 32.83C25.99 32.51 25.83 32.04 25.67 31.72C25.51 31.4 25.43 30.61 25.43 30.38C25.43 30.14 24.8 29.75 24.56 29.51C24.32 29.27 24.4 28.96 24.4 28.64C24.4 28.32 24.17 27.61 24.24 27.06C24.32 26.51 23.53 26.9 23.05 27.06C22.58 27.22 22.26 26.9 22.26 26.43C22.26 25.95 21.39 26.35 20.83 26.67C20.28 26.99 19.64 26.99 19.01 27.22C18.38 27.46 18.06 26.98 18.06 26.98C18.06 26.98 17.51 26.51 17.11 26.27C16.71 26.03 16.31 25.56 16 25.16C15.68 24.76 14.89 23.58 14.81 23.1C14.73 22.62 14.81 22.31 14.81 21.75C14.81 21.2 14.81 20.88 14.89 20.48C14.97 20.09 15.21 19.61 15.44 19.22C15.67 18.82 16.55 18.35 16.78 18.19C17.02 18.03 17.57 17.56 17.57 17.24C17.57 16.92 17.89 16.77 18.04 16.45C18.2 16.13 18.76 15.34 19.47 15.66C19.47 15.66 20.1 15.58 20.34 15.5C20.58 15.42 21.21 15.19 21.53 15.03C21.84 14.87 22.63 14.8 22.63 14.8C22.63 14.8 23.25 15.05 23.49 15.05C23.73 15.05 24.5 14.91 24.5 14.91C24.5 14.91 24.86 16.06 24.86 16.3C24.86 16.54 25.1 16.77 25.49 16.93C25.93 17.09 27.75 17.49 28.54 16.85L28.54 16.85L28.54 16.85ZM18.25 9.42001L17.94 8.95001L18.25 8.23999L19.01 8.54001L19.01 7.13L19.74 6.73999L20.35 7.61002L21.28 8.64001L20.66 9.11002L19.01 9.42999L19.01 8.59L18.25 9.42001L18.25 9.42001L18.25 9.42001ZM8.77002 7.57001C10.71 5.78 12.98 4.35999 15.48 3.39999C15.23 3.72 14.94 4.04001 14.94 4.04001C14.94 4.04001 14.38 4.04001 13.36 5.14999C12.33 6.26001 12.57 5.94 12.33 6.26001C12.09 6.57999 12.17 6.64999 11.62 7.04999C11.07 7.45001 10.83 7.92001 10.83 7.92001L9.94 8.23001L9.22998 7.91C9.22998 7.91 8.59998 8.14999 8.66998 7.82999C8.70001 7.75 8.73999 7.66 8.77002 7.57001L8.77002 7.57001L8.77002 7.57001ZM6.22998 10.6C6.22998 10.92 5.80005 10.99 6.22998 11.79C6.78003 12.82 6.31 13.29 6.31 13.29C6.31 13.29 4.97003 14.24 4.72998 14.4C4.48999 14.56 3.85999 15.43 4.26001 15.19C4.65002 14.95 5.13 14.72 4.72998 15.35C4.33002 15.98 3.62 17.01 3.46002 17.41C3.29999 17.8 2.51001 18.76 2.51001 19.23C2.51001 19.7 2.19 20.65 2.27002 21.05C2.32001 21.33 2.15002 22.14 2.01001 22.47C2.12 18.02 3.60999 13.92 6.09003 10.57C6.16998 10.58 6.22998 10.6 6.22998 10.6L6.22998 10.6L6.22998 10.6ZM43.98 22.99C43.98 23.39 43.94 23.79 43.92 24.18C43.77 23.81 43.55 23.32 43.5 23.11C43.42 22.79 42.95 21.69 42.95 21.69C42.95 21.69 42.48 21.05 42.16 20.9C41.84 20.74 41.61 20.35 41.05 20.03C40.5 19.71 40.26 19.55 39.78 19.55C39.31 19.55 38.83 18.92 38.27 18.6C37.72 18.29 37.64 18.44 37.64 18.44C37.64 18.44 38.27 19.39 38.27 19.63C38.27 19.87 38.98 20.26 39.7 20.11C39.7 20.11 40.17 20.98 40.41 21.22C40.65 21.46 40.33 21.7 39.86 22.01C39.39 22.33 39.47 22.25 39.23 22.49C38.99 22.73 38.2 23.13 37.96 23.28C37.72 23.44 36.77 23.92 36.3 23.44C36.07 23.21 36.14 22.73 35.99 22.41C35.83 22.09 34.17 19.64 33.38 18.54C33.24 18.34 32.91 17.75 32.67 17.59C32.43 17.43 33.22 17.43 33.22 17.43C33.22 17.43 33.22 16.87 33.14 16.48C33.06 16.09 33.22 15.53 33.22 15.53C33.22 15.53 32.43 16.01 32.19 16.16C31.95 16.32 31.72 15.85 31.4 15.45C31.09 15.05 30.77 14.58 30.69 14.18C30.61 13.79 31.08 13.63 31.08 13.63L31.79 13.23C31.79 13.23 32.66 13.07 33.22 13.15C33.77 13.23 34.65 13.31 34.65 13.31C34.65 13.31 34.88 12.76 34.56 12.52C34.25 12.28 33.53 11.89 33.22 11.97C32.9 12.05 33.37 11.57 33.77 11.26L32.89 11.1C32.89 11.1 32.09 11.49 31.85 11.57C31.61 11.65 31.2 11.81 30.89 12.2C30.57 12.6 31.02 13.15 30.7 13.31C30.38 13.47 30.17 13.55 29.93 13.63C29.69 13.71 28.94 13.63 28.94 13.63C28.12 13.63 28.65 14.38 28.86 14.64L28.23 13.87L27.76 12.76C27.76 12.76 27.08 12.29 26.77 12.13C26.46 11.97 25.48 11.42 25.48 11.42L25.54 12.13L26.46 13.06L26.54 13.08L27.02 13.71L25.97 13.79L25.97 13.16C24.98 12.92 25.23 12.67 25.13 12.6C24.89 12.44 24.34 12.05 24.34 12.05C24.34 12.05 23.41 12.21 23.17 12.29C22.93 12.37 22.87 12.61 22.39 12.76C21.91 12.92 21.7 13.16 21.54 13.39C21.38 13.63 20.87 14.34 20.55 14.66C20.23 14.98 19.64 14.9 19.41 14.9C19.17 14.9 18.03 14.58 18.03 14.58L18.03 13.24C18.03 13.24 18.1899 12.49 18.11 12.25L18.8 12.13L19.96 11.89L20.3 11.65L20.79 11.02C20.79 11.02 20.24 10.62 20.64 10.07C20.83 9.79999 21.51 9.76001 21.83 9.51999C22.15 9.28 22.63 9.12 22.63 9.12C22.63 9.12 23.18 8.64999 23.74 8.09C23.74 8.09 24.14 7.85001 24.62 7.69C24.62 7.69 25.96 8.88 26.2 8.88C26.44 8.88 27.31 8.33002 27.31 8.33002C27.31 8.33002 27.55 7.62 27.47 7.38C27.39 7.14001 26.99 6.35001 26.99 6.35001C26.99 6.35001 26.76 6.75 26.52 7.06C26.28 7.38 26.13 7.76999 26.13 7.76999C26.13 7.76999 25.02 7.69 24.94 7.45999C24.86 7.22 24.7 6.83002 24.62 6.60001C24.54 6.35999 23.91 6.37 23.43 6.53C22.96 6.69 23.51 5.67999 23.51 5.67999C23.51 5.67999 23.99 5.07999 24.3 5.07999C24.62 5.07999 25.33 4.67001 25.64 4.60001C25.95 4.51999 26.91 4.16 27.3 4.16C27.7 4.16 28.17 4.32999 28.41 4.32999C28.65 4.32999 29.6 4.32999 29.6 4.32999L31.26 4.20001C31.26 4.20001 32.69 4.73001 32.21 5.04001C32.21 5.04001 32.77 5.39001 33 5.62C33.22 5.84 33.79 5.41 34.13 5.23001C40.03 8.92001 43.98 15.49 43.98 22.99L43.98 22.99L43.98 22.99ZM22.99 0C10.32 0 0 10.31 0 22.99C0 35.66 10.31 45.97 22.99 45.97C35.66 45.97 45.97 35.66 45.97 22.99C45.97 10.31 35.66 0 22.99 0L22.99 0L22.99 0Z" id="Shape" fill="#25408F" fill-rule="evenodd" stroke="none" />
</svg>
